Coordinates
version=1
nRows=19
nColumns=34
inDegrees=yes

Units are S.I. units (second, meters, Newtons, ...)
If the header above contains a line with 'inDegrees', this indicates whether rotational values are in degrees (yes) or radians (no).

endheader
time	pelvis_tilt	pelvis_list	pelvis_rotation	pelvis_tx	pelvis_ty	pelvis_tz	hip_flexion_r	hip_adduction_r	hip_rotation_r	knee_angle_r	ankle_angle_r	subtalar_angle_r	mtp_angle_r	hip_flexion_l	hip_adduction_l	hip_rotation_l	knee_angle_l	ankle_angle_l	subtalar_angle_l	mtp_angle_l	lumbar_extension	lumbar_bending	lumbar_rotation	arm_flex_r	arm_add_r	arm_rot_r	elbow_flex_r	pro_sup_r	arm_flex_l	arm_add_l	arm_rot_l	elbow_flex_l	pro_sup_l
      1.73333330	    -12.97462628	      1.53451222	     -6.15441811	     -0.14527915	      1.15286065	     -0.17472225	      5.93577105	      0.96185323	    -15.75334946	      0.00000000	      5.07129153	      5.06846756	      0.00000000	      4.85601463	      2.17727752	     -6.90146748	      0.00000000	      2.71320396	      3.54651189	      0.00000000	     15.76256042	      0.79873662	     15.05041833	    -10.07694245	    -10.53608052	     17.92652587	     41.77122585	     80.94664311	    -91.07321794	   -152.71009085	   -145.09905556	    150.00035077	     67.35480940
      1.75000000	    -13.09169765	      1.58237387	     -5.87444833	     -0.14252373	      1.15356456	     -0.17319610	      5.92186521	      0.82647547	    -16.48050620	      0.00000000	      4.84969908	      5.41052975	      0.00000000	      4.96679995	      2.28323409	     -6.95209867	      0.00000000	      2.54100949	      3.53161079	      0.00000000	     16.12847667	      0.82286929	     15.65511396	    -10.68005282	    -10.50976054	     17.36413657	     41.97072165	     80.61644961	    -96.12299540	   -152.55718460	   -144.51166852	    150.00035077	     67.44724637
      1.76666670	    -12.85888933	      1.51400293	     -5.51660253	     -0.14508984	      1.15631036	     -0.17497962	      5.60325538	      0.80943974	    -16.90260277	      0.00000000	      4.72759230	      5.39695943	      0.00000000	      4.78605226	      2.30568167	     -6.81626901	      0.00000000	      2.41276749	      3.57928032	      0.00000000	     15.87032796	      0.87078296	     16.02370567	    -10.80353135	    -10.60865231	     17.04584248	     42.12907143	     80.41823121	   -101.51781077	   -152.59129351	   -143.00958426	    150.00035077	     67.61414688
      1.78333330	    -12.60968053	      1.44675971	     -4.96340245	     -0.14134507	      1.15869625	     -0.17620316	      5.27115511	      0.75590857	    -17.29223365	      0.00000000	      4.47644592	      5.49456382	      0.00000000	      4.60764771	      2.34936166	     -6.73285553	      0.00000000	      2.06931656	      3.66474878	      0.00000000	     15.74696408	      0.89940455	     16.20705974	    -11.17149485	    -10.73477387	     16.78911292	     42.24884962	     80.24820786	   -107.35832691	   -152.63897994	   -141.21276881	    150.00035077	     67.81746653
      1.80000000	    -12.70650051	      1.34472503	     -4.27059982	     -0.14423235	      1.15766319	     -0.17766471	      5.30699078	      0.78883188	    -17.84587661	      0.00000000	      4.45938850	      6.04865489	      0.00000000	      4.90222546	      2.33830603	     -6.19794947	      0.00000000	      2.02135682	      3.72829224	      0.00000000	     16.16398573	      1.13094197	     15.74587260	    -11.38434169	    -10.81450564	     16.49872902	     42.70292590	     79.77178439	   -113.97622331	   -151.40078556	   -139.87412295	    150.00035077	     68.60925625
      1.81666670	    -12.21704345	      1.14305557	     -3.51585276	     -0.14678258	      1.15790615	     -0.17794675	      4.83283974	      0.91299021	    -17.80535941	      0.00000000	      4.66439078	      6.00385721	      0.00000000	      4.60264829	      2.26411387	     -5.74725544	      0.00000000	      2.13256353	      3.84525575	      0.00000000	     15.58099470	      1.10754594	     15.86233434	    -11.51510561	    -11.08002984	     16.54852677	     42.81930369	     79.65006602	   -119.88619695	   -151.65416300	   -138.10351471	    150.00035077	     68.90416266
      1.83333330	    -12.11519709	      0.93283765	     -2.72570770	     -0.14692411	      1.16299751	     -0.17719638	      4.79499952	      1.11018641	    -18.22786363	      0.00000000	      4.89779948	      6.79697239	      0.00000000	      4.72460995	      2.08379818	     -4.94837991	      0.00000000	      2.05099965	      3.75013047	      0.00000000	     15.56903169	      1.60707682	     13.35797445	     -9.95746794	    -11.65181284	     19.57759201	     42.70838767	     78.69900471	   -129.17030399	   -148.46553949	   -140.93847059	    149.77877029	     72.93222074
      1.85000000	    -11.90362223	      0.86514864	     -2.17120906	     -0.14933196	      1.16645483	     -0.17754971	      4.57651512	      1.11585169	    -18.08510452	      0.00000000	      4.81933738	      6.81280313	      0.00000000	      4.75385486	      2.05365222	     -4.49143976	      0.00000000	      1.95316236	      4.22378402	      0.00000000	     15.73136626	      1.35496191	     13.86639947	     -9.77092898	    -11.90349861	     20.79306537	     42.04087677	     78.10958243	   -135.19379696	   -149.58024449	   -140.68432649	    143.81033199	     74.73577925
      1.86666670	    -11.54131250	      0.75568480	     -1.95087656	     -0.15270192	      1.16090607	     -0.17636661	      4.31139457	      1.25303318	    -18.10751483	      0.00000000	      4.88233900	      6.52828960	      0.00000000	      4.52043887	      1.94829900	     -4.46697245	      0.00000000	      2.02958431	      3.96296587	      0.00000000	     15.38464223	      1.48425857	     14.28392598	     -9.60747222	    -12.11851790	     21.34755650	     41.89682611	     76.91094642	   -141.70390418	   -150.44871468	   -142.94858590	    137.46932824	     77.97351319
      1.88333330	    -11.35328622	      0.76740344	     -1.53651313	     -0.15337333	      1.15698063	     -0.17664390	      4.16520904	      1.22556107	    -18.18751538	      0.00000000	      5.09903940	      6.43640746	      0.00000000	      4.46063489	      1.97053551	     -3.92381405	      0.00000000	      1.97656457	      4.19332305	      0.00000000	     15.28981641	      1.26288554	     14.47007659	     -9.59772731	    -12.12519874	     21.37002668	     42.02512706	     76.64061085	   -146.83693459	   -152.34592687	   -144.71557124	    129.82966355	     78.92578098
      1.90000000	    -11.13310908	      0.72149248	     -1.39269355	     -0.15654794	      1.15594613	     -0.17870465	      4.02432394	      1.20616917	    -18.16564675	      0.00000000	      5.40426656	      6.14492661	      0.00000000	      4.33228402	      1.94408183	     -3.59931573	      0.00000000	      2.12014090	      4.23581811	      0.00000000	     14.89366473	      1.36002506	     14.55748806	     -9.57322531	    -12.25206204	     21.09180087	     42.02848771	     76.51231880	   -151.60032894	   -154.71335701	   -146.85207145	    122.40824325	     79.69957024
      1.91666670	    -11.02924449	      0.63355569	     -1.33619227	     -0.15382276	      1.15818004	     -0.17743029	      3.86596692	      1.29484595	    -18.00729106	      0.00000000	      5.47992609	      5.90680491	      0.00000000	      4.27665522	      1.85705404	     -3.38614402	      0.00000000	      2.18743075	      3.88449123	      0.00000000	     14.52266951	      1.51523411	     13.86443401	     -9.07612105	    -11.62582631	     19.55171066	     41.05194336	     76.75115524	   -157.39579208	   -157.84091746	   -150.97091610	    116.52019884	     84.38704583
      1.93333330	    -10.81771896	      0.51785003	     -1.12497896	     -0.15384836	      1.15484613	     -0.17731205	      3.50722261	      1.40170567	    -18.37570509	      0.00000000	      5.45531875	      5.50113662	      0.00000000	      4.08061726	      1.73663009	     -3.05419330	      0.00000000	      2.33581203	      4.19706396	      0.00000000	     14.09500308	      1.45849288	     13.62417355	     -9.25749609	    -11.63637263	     19.38016544	     41.31257859	     76.99256126	   -161.54850193	   -161.14541341	   -153.13908234	    110.61746825	     84.48230613
      1.95000000	    -10.82349998	      0.50515368	     -1.15590703	     -0.15473030	      1.15616662	     -0.17687413	      3.41644768	      1.49428035	    -18.31605542	      0.00000000	      5.37696412	      5.01078274	      0.00000000	      4.12469059	      1.69640732	     -2.99355427	      0.00000000	      2.32335266	      3.86140643	      0.00000000	     13.64225154	      1.37090862	     11.98221562	     -8.18555277	    -10.94990817	     18.12712522	     40.39628628	     78.47690866	   -167.35202767	   -163.87897536	   -157.64042371	    107.19029069	     85.02674461
      1.96666670	    -10.79089614	      0.45078606	     -1.12480537	     -0.15306433	      1.15666162	     -0.17781993	      3.36467766	      1.57958830	    -18.48907870	      0.00000000	      5.48543955	      4.94790464	      0.00000000	      4.14851950	      1.62350999	     -2.80342188	      0.00000000	      2.33555165	      4.07160969	      0.00000000	     13.28379492	      1.20885618	     11.42128400	     -7.99370076	    -10.69924282	     18.04791750	     40.37555234	     78.90677264	   -171.51624496	   -166.18039942	   -159.50947638	    101.88037145	     84.71858016
      1.98333330	    -10.82551617	      0.42869914	     -1.37621268	     -0.15309295	      1.15306971	     -0.17611942	      3.47430007	      1.67158801	    -18.19994243	      0.00000000	      5.79996392	      4.78834364	      0.00000000	      4.22673782	      1.57093770	     -2.84745623	      0.00000000	      2.40002764	      3.82099469	      0.00000000	     12.85899210	      1.11095090	      9.29233674	     -6.13333588	    -10.08384583	     17.81839887	     38.57292407	     80.87553751	   -177.23963068	   -168.00911964	   -164.04428331	     97.89662710	     83.20410765
      2.00000000	    -10.80634472	      0.37519110	     -1.14396455	     -0.14639877	      1.15292209	     -0.17756609	      3.31422757	      1.76740757	    -18.38075930	      0.00000000	      5.69496208	      4.79328359	      0.00000000	      4.10719550	      1.49527900	     -2.52679593	      0.00000000	      2.54365735	      4.00663310	      0.00000000	     12.72146804	      0.92983373	      6.37602569	     -3.99103187	     -9.20864559	     19.60817503	     35.94463062	     84.79041388	   -182.21028644	   -169.31023155	   -167.06546199	     92.40468593	     80.36622692
      2.01666670	    -10.82006415	      0.26450581	     -1.07693452	     -0.15032186	      1.14962652	     -0.17657757	      3.22764385	      1.91432815	    -18.34293474	      0.00000000	      5.91968671	      4.44752052	      0.00000000	      4.08537480	      1.36916229	     -2.34843446	      0.00000000	      2.93286965	      3.98764001	      0.00000000	     12.48269613	      0.92276032	      5.18841392	     -3.62082071	     -8.87190013	     19.37538740	     36.32113624	     85.02670823	   -184.56904375	   -170.75298364	   -167.90965307	     85.03176919	     79.90909332
      2.03333330	    -10.79847652	      0.26062433	     -1.08369351	     -0.15206201	      1.14941752	     -0.17418156	      3.14919285	      2.01769861	    -18.19507373	      0.00000000	      5.83175282	      4.10561887	      0.00000000	      4.01254913	      1.29512916	     -2.10134299	      0.00000000	      3.23594907	      3.77855615	      0.00000000	     12.33592999	      0.83725958	      4.34707814	     -2.88699165	     -8.17698947	     18.82785966	     35.91962395	     85.38935171	   -186.07631972	   -171.98404121	   -168.43714640	     76.75543764	     79.43207576
